<?xml version="1.0" standalone="no"?>
<!DOCTYPE svg PUBLIC "-//W3C//DTD SVG 20010904//EN"
 "http://www.w3.org/TR/2001/REC-SVG-20010904/DTD/svg10.dtd">
<svg version="1.0" xmlns="http://www.w3.org/2000/svg"
 width="260.000000pt" height="260.000000pt" viewBox="0 0 260.000000 260.000000"
 preserveAspectRatio="xMidYMid meet">
<metadata>
Created by potrace 1.11, written by Peter Selinger 2001-2013
</metadata>
<g transform="translate(0.000000,260.000000) scale(0.100000,-0.100000)"
fill="#000000" stroke="none">
<path d="M307 2372 c-15 -17 -17 -56 -17 -360 l0 -342 -109 0 c-137 0 -141 -3
-141 -105 0 -102 4 -105 140 -105 l109 0 3 -502 c3 -487 4 -504 24 -538 47
-81 132 -100 447 -100 266 0 257 -4 257 111 0 100 2 99 -221 99 -131 0 -189 4
-197 12 -9 9 -12 126 -12 465 l0 453 310 0 310 0 0 -343 c0 -253 3 -346 12
-355 8 -8 53 -12 134 -12 98 0 126 3 138 16 14 13 16 60 16 355 l0 339 354 0
c317 0 355 -2 367 -17 11 -13 14 -97 14 -448 0 -351 -3 -435 -14 -448 -12 -15
-60 -17 -512 -17 -439 0 -499 -2 -513 -16 -23 -22 -22 -156 0 -179 15 -14 72
-15 573 -13 404 3 566 7 592 16 66 22 103 54 134 117 l30 60 0 480 0 480 -30
60 c-31 63 -68 95 -134 117 -25 8 -161 13 -448 15 l-413 4 0 332 c0 247 -4
338 -13 357 -12 24 -16 25 -131 28 -100 2 -122 0 -137 -14 -18 -16 -19 -38
-19 -361 l0 -343 -310 0 -310 0 0 343 c0 320 -1 345 -18 360 -15 14 -41 17
-134 17 -99 0 -117 -3 -131 -18z"/>
</g>
</svg>
